<svg xmlns="http://www.w3.org/2000/svg" viewBox="0 0 512 512" fill="none">
  <path fill="#fff" fill-opacity="0.95" d="M439.652 512H72.348c-9.217 0-16.696-7.479-16.696-16.696V16.696C55.652 7.479 63.131 0 72.348 0h233.739c4.424 0 8.674 1.761 11.804 4.892l133.565 133.565c3.131 3.13 4.892 7.379 4.892 11.804v345.043C456.348 504.521 448.869 512 439.652 512z"/>
  <path fill="#fff" fill-opacity="0.72" d="M317.891 4.892C314.761 1.761 310.511 0 306.087 0H256v512h183.652c9.217 0 16.696-7.479 16.696-16.696V150.261c0-4.424-1.761-8.674-4.892-11.804L317.891 4.892z"/>
  <path fill="#fff" fill-opacity="0.95" d="M451.459 138.459 317.891 4.892C314.76 1.76 310.511 0 306.082 0h-16.691l.001 150.261c0 9.22 7.475 16.696 16.696 16.696h150.26v-16.696C456.348 145.834 454.589 141.589 451.459 138.459z"/>
  <circle fill="#818cf8" cx="139.13" cy="261.565" r="16.696"/>
  <circle fill="#818cf8" cx="139.13" cy="328.348" r="16.696"/>
  <circle fill="#818cf8" cx="139.13" cy="395.13" r="16.696"/>
  <path fill="#c7d2fe" d="M372.87 411.826H205.913c-9.217 0-16.696-7.479-16.696-16.696 0-9.217 7.479-16.696 16.696-16.696H372.87c9.217 0 16.696 7.479 16.696 16.696 0 9.217-7.479 16.696-16.696 16.696z"/>
  <path fill="#a5b4fc" d="M372.87 378.435H256v33.391h116.87c9.217 0 16.696-7.479 16.696-16.696 0-9.217-7.479-16.696-16.696-16.696z"/>
  <path fill="#c7d2fe" d="M372.87 345.043H205.913c-9.217 0-16.696-7.479-16.696-16.696 0-9.217 7.479-16.696 16.696-16.696H372.87c9.217 0 16.696 7.479 16.696 16.696 0 9.217-7.479 16.696-16.696 16.696z"/>
  <path fill="#a5b4fc" d="M372.87 311.652H256v33.391h116.87c9.217 0 16.696-7.479 16.696-16.696 0-9.217-7.479-16.696-16.696-16.696z"/>
  <path fill="#c7d2fe" d="M372.87 278.261H205.913c-9.217 0-16.696-7.479-16.696-16.696 0-9.217 7.479-16.696 16.696-16.696H372.87c9.217 0 16.696 7.479 16.696 16.696 0 9.217-7.479 16.696-16.696 16.696z"/>
  <path fill="#a5b4fc" d="M372.87 244.87H256v33.391h116.87c9.217 0 16.696-7.479 16.696-16.696 0-9.217-7.479-16.696-16.696-16.696z"/>
</svg>
